<?xml version="1.0" encoding="UTF-8" standalone="no"?>
<svg height="16px" viewBox="0 0 16 16" width="16px" xmlns="http://www.w3.org/2000/svg" xmlns:svg="http://www.w3.org/2000/svg">
    <path d="m 5.9999999 4 c -1.097656 0 -1.9999999 0.902344 -1.9999999 2 s 0.9023439 2 1.9999999 2 s 2 -0.902344 2 -2 s -0.902344 -2 -2 -2 z m 0 1 c 0.558594 0 1 0.441406 1 1 s -0.441406 1 -1 1 s -1 -0.441406 -1 -1 s 0.441406 -1 1 -1 z m 0 0"/>
    <path d="m 3 11 c -1.097656 0 -2 0.902344 -2 2 s 0.902344 2 2 2 s 2 -0.902344 2 -2 s -0.902344 -2 -2 -2 z m 0 1 c 0.558594 0 1 0.441406 1 1 s -0.441406 1 -1 1 s -1 -0.441406 -1 -1 s 0.441406 -1 1 -1 z m 0 0"/>
    <path d="m 13 1 c -1.097656 0 -2 0.902344 -2 2 s 0.902344 2 2 2 s 2 -0.902344 2 -2 s -0.902344 -2 -2 -2 z m 0 1 c 0.558594 0 1 0.441406 1 1 s -0.441406 1 -1 1 s -1 -0.441406 -1 -1 s 0.441406 -1 1 -1 z m 0 0"/>
    <path d="m 9.9999999 10 c -1.097656 0 -1.9999999 0.902344 -1.9999999 2 s 0.9023439 2 1.9999999 2 c 1.0976561 0 2.0000001 -0.902344 2.0000001 -2 s -0.902344 -2 -2.0000001 -2 z m 0 1 c 0.5585941 0 1.0000001 0.441406 1.0000001 1 s -0.441406 1 -1.0000001 1 c -0.558594 0 -1 -0.441406 -1 -1 s 0.441406 -1 1 -1 z m 0 0"/>
    <path d="m 4.42578 7.13281 l -1.66211 3.88281 l 1.83789 0.78906 l 1.66406 -3.88476 z"/>
    <path d="m 11.59375 4.05468 l -2.10156 6.30469 l 1.89843 0.63281 l 2.10157 -6.30468 z"/>
    <path d="m 7.65234 6.67383 l -1.66406 1.10937 l 2.22851 3.3457 l 1.66407 -1.10937 z"/>
</svg>
